<svg width="26" height="28" viewBox="0 0 26 28" fill="none" xmlns="http://www.w3.org/2000/svg">
<path d="M22.3646 2.19274C20.1829 0.778689 17.3029 0 14.2552 0H11.7446C8.697 0 5.81691 0.778689 3.63525 2.19274C1.29104 3.71212 0 5.79381 0 8.05434V9.13248H25.9998V8.05434C25.9998 5.79381 24.7088 3.71212 22.3646 2.19274ZM2.13395 6.9762C3.00181 4.27268 7.05092 2.15629 11.7447 2.15629H14.2553C18.9491 2.15629 22.9982 4.27268 23.8661 6.9762H2.13395ZM0 16.6795H25.9998V18.8358H0V16.6795ZM20.7999 11.2914C19.28 11.2914 18.4838 11.7041 17.7812 12.0683C17.1659 12.3872 16.6799 12.6391 15.5997 12.6391C14.5195 12.6391 14.0336 12.3872 13.4183 12.0683C12.7158 11.7044 11.9196 11.2914 10.3998 11.2914C8.88004 11.2914 8.0838 11.7041 7.38131 12.0683C6.76608 12.3872 6.28018 12.6391 5.20002 12.6391C4.11987 12.6391 3.6339 12.3872 3.01868 12.0683C2.31619 11.7044 1.51995 11.2914 0.00018386 11.2914V13.4477C1.08034 13.4477 1.5663 13.6996 2.18153 14.0185C2.88402 14.3824 3.68026 14.7954 5.20002 14.7954C6.71979 14.7954 7.51597 14.3826 8.21846 14.0185C8.83368 13.6996 9.31965 13.4477 10.3998 13.4477C11.48 13.4477 11.9659 13.6996 12.5812 14.0185C13.2837 14.3824 14.0799 14.7954 15.5997 14.7954C17.1195 14.7954 17.9158 14.3826 18.6183 14.0185C19.2336 13.6996 19.7196 13.4477 20.7999 13.4477C21.8801 13.4477 22.3661 13.6996 22.9814 14.0185C23.6839 14.3824 24.4802 14.7954 26 14.7954V12.6391C24.9197 12.6391 24.4338 12.3872 23.8185 12.0683C23.1157 11.7041 22.3195 11.2914 20.7999 11.2914ZM0 26.3828C0.000454411 26.8115 0.155653 27.2226 0.431549 27.5258C0.707446 27.829 1.08151 27.9995 1.47169 28H24.5281C24.9183 27.9995 25.2924 27.829 25.5683 27.5258C25.8442 27.2226 25.9994 26.8115 25.9998 26.3828V20.9921H0V26.3828ZM1.96225 23.1484H24.0376V25.8437H1.96225V23.1484Z" fill="black"/>
</svg>
